<?xml version="1.0" encoding="UTF-8"?>
<!-- Generator: Adobe Illustrator 25.2.0, SVG Export Plug-In . SVG Version: 6.00 Build 0)  -->
<svg version="1.1" id="Capa_1" xmlns="http://www.w3.org/2000/svg" xmlns:xlink="http://www.w3.org/1999/xlink" x="0px" y="0px" viewBox="0 0 276.2 276.2" style="enable-background:new 0 0 276.2 276.2;" xml:space="preserve">
<style type="text/css">
	.st0{fill:#0E1133;}
</style>
<g>
	<g>
		<path class="st0" d="M33.1,2.5C15.3,2.5,0.9,17,0.9,34.8s14.5,32.3,32.3,32.3s32.3-14.5,32.3-32.3S51,2.5,33.1,2.5z"/>
		<path class="st0" d="M137.7,2.5c-17.8,0-32.3,14.5-32.3,32.3s14.5,32.3,32.3,32.3c17.8,0,32.3-14.5,32.3-32.3S155.5,2.5,137.7,2.5    z"/>
		<path class="st0" d="M243.9,67.1c17.8,0,32.3-14.5,32.3-32.3S261.7,2.5,243.9,2.5S211.6,17,211.6,34.8S226.1,67.1,243.9,67.1z"/>
		<path class="st0" d="M32.3,170.5c17.8,0,32.3-14.5,32.3-32.3c0-17.8-14.5-32.3-32.3-32.3S0,120.4,0,138.2S14.5,170.5,32.3,170.5z"/>
		<path class="st0" d="M136.8,170.5c17.8,0,32.3-14.5,32.3-32.3c0-17.8-14.5-32.3-32.3-32.3c-17.8,0-32.3,14.5-32.3,32.3    C104.5,156.1,119,170.5,136.8,170.5z"/>
		<path class="st0" d="M243,170.5c17.8,0,32.3-14.5,32.3-32.3c0-17.8-14.5-32.3-32.3-32.3s-32.3,14.5-32.3,32.3    C210.7,156.1,225.2,170.5,243,170.5z"/>
		<path class="st0" d="M33,209.1c-17.8,0-32.3,14.5-32.3,32.3c0,17.8,14.5,32.3,32.3,32.3s32.3-14.5,32.3-32.3S50.8,209.1,33,209.1z    "/>
		<path class="st0" d="M137.6,209.1c-17.8,0-32.3,14.5-32.3,32.3c0,17.8,14.5,32.3,32.3,32.3c17.8,0,32.3-14.5,32.3-32.3    S155.4,209.1,137.6,209.1z"/>
		<path class="st0" d="M243.8,209.1c-17.8,0-32.3,14.5-32.3,32.3c0,17.8,14.5,32.3,32.3,32.3c17.8,0,32.3-14.5,32.3-32.3    S261.6,209.1,243.8,209.1z"/>
	</g>
</g>
</svg>