<?xml version="1.0" encoding="UTF-8"?>
<!-- Generator: Adobe Illustrator 25.2.0, SVG Export Plug-In . SVG Version: 6.00 Build 0)  -->
<svg version="1.1" id="Layer_1" xmlns="http://www.w3.org/2000/svg" xmlns:xlink="http://www.w3.org/1999/xlink" x="0px" y="0px" viewBox="0 0 512 512" style="enable-background:new 0 0 512 512;" xml:space="preserve">
<style type="text/css">
	.st0{fill:#53545B;}
</style>
<g id="Layer_2_1_">
	<path class="st0" d="M448,69H192c-17.7,0-32,13.9-32,31s14.3,31,32,31h256c17.7,0,32-13.9,32-31S465.7,69,448,69z"/>
	<circle class="st0" cx="64" cy="100" r="31"/>
	<path class="st0" d="M448,225H192c-17.7,0-32,13.9-32,31s14.3,31,32,31h256c17.7,0,32-13.9,32-31S465.7,225,448,225z"/>
	<circle class="st0" cx="64" cy="256" r="31"/>
	<path class="st0" d="M448,381H192c-17.7,0-32,13.9-32,31s14.3,31,32,31h256c17.7,0,32-13.9,32-31S465.7,381,448,381z"/>
	<circle class="st0" cx="64" cy="412" r="31"/>
</g>
</svg>