<?xml version="1.0" encoding="UTF-8"?>
<!-- Generator: Adobe Illustrator 25.2.0, SVG Export Plug-In . SVG Version: 6.00 Build 0)  -->
<svg version="1.1" id="_x31_px" xmlns="http://www.w3.org/2000/svg" xmlns:xlink="http://www.w3.org/1999/xlink" x="0px" y="0px" viewBox="0 0 512 512" style="enable-background:new 0 0 512 512;" xml:space="preserve">
<style type="text/css">
	.st0{stroke:#000000;stroke-width:2;stroke-miterlimit:10;}
</style>
<path class="st0" d="M288,512c-76.5,0-138.7-62.2-138.7-138.7v-64c0-5.9,4.8-10.7,10.7-10.7h256c5.9,0,10.7,4.8,10.7,10.7v64  C426.7,449.8,364.5,512,288,512z M170.7,320v53.3c0,64.7,52.7,117.3,117.3,117.3S405.3,438,405.3,373.3V320H170.7z"/>
<path class="st0" d="M458.7,426.7h-44.8c-5.9,0-10.7-4.8-10.7-10.7c0-5.9,4.8-10.7,10.7-10.7h44.8c8.6,0,16.6-3.3,22.4-9.4  c6.2-6.1,9.6-14,9.6-22.6c0-17.6-14.4-32-32-32h-37.3c-5.9,0-10.7-4.8-10.7-10.7s4.8-10.7,10.7-10.7h37.3  c29.4,0,53.3,23.9,53.3,53.3c0,14.4-5.6,27.8-15.8,37.7C486.5,421.1,473.1,426.7,458.7,426.7L458.7,426.7z"/>
<path class="st0" d="M236.6,256c-3.3,0-6.6-1.5-8.6-4.4c-3.5-4.8-2.4-11.4,2.4-14.9c6.7-4.9,10.1-10.9,9.6-17.1  c-0.6-7-6.2-13.6-15.2-18c-16-7.7-25.9-20.6-27.2-35.3c-1.2-13.8,5.5-27,18.3-36.3c4.8-3.5,11.4-2.4,14.9,2.4  c3.5,4.8,2.4,11.4-2.4,14.9c-6.7,4.9-10.1,10.9-9.6,17.1c0.6,7,6.2,13.6,15.2,18c16,7.7,25.9,20.6,27.2,35.3  c1.2,13.8-5.5,27-18.3,36.3C241,255.3,238.8,256,236.6,256L236.6,256z"/>
<path class="st0" d="M338,256c-3.3,0-6.6-1.5-8.6-4.4c-3.5-4.8-2.4-11.4,2.4-14.9c6.7-4.9,10.1-10.9,9.6-17.1  c-0.6-7-6.2-13.6-15.2-18c-16-7.7-25.9-20.6-27.2-35.3c-1.2-13.8,5.5-27,18.3-36.3c4.8-3.5,11.4-2.4,14.9,2.4  c3.5,4.8,2.4,11.4-2.4,14.9c-6.7,4.9-10.1,10.9-9.6,17.1c0.6,7,6.2,13.6,15.2,18c16,7.7,25.9,20.6,27.2,35.3  c1.2,13.8-5.5,27-18.3,36.3C342.3,255.3,340.1,256,338,256z"/>
<path class="st0" d="M426.7,512H149.3c-5.9,0-10.7-4.8-10.7-10.7s4.8-10.7,10.7-10.7h277.3c5.9,0,10.7,4.8,10.7,10.7  S432.6,512,426.7,512z"/>
<path class="st0" d="M32,442.1c-7.2,0-14.2-2.4-20-7c-7.6-6.1-12-15.3-12-25V66.3c0-12,6.9-23.2,17.6-28.5  c101.9-51.3,178-51.1,238.4,1.1c60.4-52.2,136.5-52.4,238.4-1.1c10.7,5.3,17.6,16.5,17.6,28.5v200.3c0,5.9-4.8,10.7-10.7,10.7  s-10.7-4.8-10.7-10.7V66.3c0-4-2.3-7.7-5.8-9.4c-97-48.9-167.3-47.6-221.5,4.1c-4.1,3.9-10.6,3.9-14.7,0  c-54.2-51.7-124.5-53-221.5-4.2c-3.6,1.8-5.8,5.5-5.8,9.5V410c0,3.3,1.5,6.4,4,8.4c1.5,1.2,4.7,3,9,2.1c25.7-6,46.7-9.8,65.9-12.1  c5.5-0.7,11.1,3.5,11.9,9.3c0.7,5.8-3.5,11.2-9.3,11.9c-18.4,2.2-38.6,6-63.7,11.8C36.7,441.9,34.3,442.1,32,442.1L32,442.1z"/>
<path class="st0" d="M256,106.7c-5.9,0-10.7-4.8-10.7-10.7V53.3c0-5.9,4.8-10.7,10.7-10.7s10.7,4.8,10.7,10.7V96  C266.7,101.9,261.9,106.7,256,106.7z"/>
</svg>