<?xml version="1.0" encoding="UTF-8"?>
<!-- Generator: Adobe Illustrator 25.2.0, SVG Export Plug-In . SVG Version: 6.00 Build 0)  -->
<svg version="1.1" id="_x31_px" xmlns="http://www.w3.org/2000/svg" xmlns:xlink="http://www.w3.org/1999/xlink" x="0px" y="0px" viewBox="0 0 512 512" style="enable-background:new 0 0 512 512;" xml:space="preserve">
<style type="text/css">
	.st0{stroke:#000000;stroke-width:2;stroke-miterlimit:10;}
</style>
<path class="st0" d="M256,512c-1.6,0-3.1-0.3-4.6-1c-53.3-25.3-120.8-27.2-212.3-5.7c-9.6,2.1-19.5-0.1-27.1-6.3  c-7.6-6.1-12-15.3-12-25V130.3c0-12,6.9-23.2,17.6-28.5c45.1-22.8,84.5-35.1,120.5-37.6c5.7-0.3,11,4,11.4,9.9  c0.4,5.9-4,11-9.9,11.4c-33.1,2.3-69.9,13.9-112.4,35.4c-3.6,1.8-5.9,5.5-5.9,9.5V474c0,3.3,1.5,6.4,4,8.4c1.5,1.2,4.7,3.1,9,2.1  c93.8-22.1,164.5-20.5,221.6,5.1c57.1-25.5,127.8-27.1,221.8-5c4.4,0.9,7.4-0.9,8.9-2.1c2.6-2,4-5.1,4-8.4V130.3  c0-4-2.3-7.7-5.8-9.4c-47-23.7-87-35.4-122.5-35.8c-5.9-0.1-10.6-4.9-10.6-10.8c0.1-5.8,4.8-10.6,10.7-10.6h0.1  c38.8,0.4,81.9,12.9,131.9,38.1c10.6,5.3,17.6,16.5,17.6,28.5V474c0,9.8-4.4,18.9-12,25c-7.6,6.1-17.5,8.3-27,6.3  c-91.6-21.5-159.1-19.8-212.4,5.6C259.1,511.7,257.6,512,256,512L256,512z"/>
<path class="st0" d="M256,506.7c-5.9,0-10.7-4.8-10.7-10.7V266.7c0-5.9,4.8-10.7,10.7-10.7s10.7,4.8,10.7,10.7V496  C266.7,501.9,261.9,506.7,256,506.7z"/>
<path class="st0" d="M96,341.3c-1,0-2.1-0.1-3.2-0.5c-5.6-1.8-8.8-7.7-7-13.4C134.1,172.8,193.5,67.4,267.5,5.3  c6.1-5.1,14.4-6.6,21.6-4.1c7,2.5,12.1,8.4,13.6,15.9c9.9,50.6,8.2,93.7-5.2,128.2c-1.1,2.9-3.4,5.2-6.4,6.2c-2.9,1-6.2,0.8-8.9-0.8  l-26.3-15v61.4c0,3.3-1.6,6.5-4.3,8.5c-28.2,21.1-66.3,33.5-113.3,36.6c-11.2,28.3-22,58.8-32.2,91.6  C104.7,338.4,100.5,341.3,96,341.3L96,341.3z M281.8,21.3c-51.7,43.3-96,108.8-134.3,198.8c35.6-3.6,64.9-13.2,87.2-28.5v-74.3  c0-3.8,2-7.3,5.3-9.2c3.2-1.9,7.3-1.9,10.6,0l31,17.7C289.7,97,289.8,62,281.8,21.3L281.8,21.3z"/>
</svg>