<?xml version="1.0" encoding="UTF-8"?>
<!-- Generator: Adobe Illustrator 25.0.0, SVG Export Plug-In . SVG Version: 6.00 Build 0)  -->
<svg version="1.1" id="Layer_1" xmlns="http://www.w3.org/2000/svg" xmlns:xlink="http://www.w3.org/1999/xlink" x="0px" y="0px" viewBox="0 0 512 512" style="enable-background:new 0 0 512 512;" xml:space="preserve">
<style type="text/css">
	.st0{fill:#CEE1F2;}
	.st1{fill:#3444F1;}
	.st2{fill:#FFB31F;}
</style>
<g>
	<path class="st0" d="M106.1,341.9V120c0-55.2,44.8-100,100-100h-61c-55.2,0-100,44.8-100,100v221.9c0,55.2,44.8,100,100,100h61   C150.8,441.8,106.1,397.1,106.1,341.9z"/>
	<path class="st1" d="M442.8,512c-10.5,0-20.9-3.9-29.2-11.3l-49.9-43.9c-8.3-7.3-9.1-19.9-1.8-28.2c7.3-8.3,19.9-9.1,28.2-1.8   l49.9,43.9c0.1,0,0.1,0.1,0.2,0.1c0.5,0.4,1.9,1.7,4.3,0.7c2.4-1.1,2.4-3,2.4-3.7V120c0-44.1-35.9-80-80-80H145   c-44.1,0-80,35.9-80,80v221.9c0,44.1,35.9,80,80,80h154c11,0,20,9,20,20s-9,20-20,20H145c-66.1,0-120-53.8-120-120V120   C25.1,53.8,78.9,0,145,0h222c66.1,0,120,53.8,120,120v348c0,17.6-10,33-26.1,40.2C455,510.7,448.8,512,442.8,512L442.8,512z    M350.7,264c-9.3-5.9-21.7-3.2-27.6,6.1c-0.2,0.4-25.1,38.7-67.1,38.7s-67.9-38.3-68.1-38.7c-5.9-9.3-18.3-12.1-27.6-6.1   c-9.3,5.9-12.1,18.3-6.1,27.6c1.5,2.3,38.2,57.2,101.8,57.2s99.3-54.9,100.8-57.2C362.8,282.3,360,270,350.7,264z"/>
	<path class="st2" d="M334,211.9c-11,0-20-9-20-20v-55c0-11,9-20,20-20s20,9,20,20v55C354,203,345,211.9,334,211.9z M199,191.9v-55   c0-11-9-20-20-20s-20,9-20,20v55c0,11,9,20,20,20S199,203,199,191.9z"/>
</g>
</svg>