<?xml version="1.0" encoding="UTF-8"?>
<!-- Generator: Adobe Illustrator 25.2.0, SVG Export Plug-In . SVG Version: 6.00 Build 0)  -->
<svg version="1.1" id="Layer_1" xmlns="http://www.w3.org/2000/svg" xmlns:xlink="http://www.w3.org/1999/xlink" x="0px" y="0px" viewBox="0 0 512 512" style="enable-background:new 0 0 512 512;" xml:space="preserve">
<style type="text/css">
	.st0{fill:#3444F1;}
	.st1{fill:#FFB31F;}
</style>
<g>
	<path class="st0" d="M438,512c-40.8,0-74-33.2-74-74V74c0-40.8,33.2-74,74-74s74,33.2,74,74v364C512,478.8,478.8,512,438,512z    M438,40c-18.7,0-34,15.3-34,34v364c0,18.7,15.3,34,34,34s34-15.3,34-34V74C472,55.3,456.7,40,438,40z M74,512   c-40.8,0-74-33.2-74-74v-82c0-40.8,33.2-74,74-74s74,33.2,74,74v82C148,478.8,114.8,512,74,512z M74,322c-18.7,0-34,15.3-34,34v82   c0,18.7,15.3,34,34,34s34-15.3,34-34v-82C108,337.3,92.7,322,74,322z M256,512c-40.8,0-74-33.2-74-74V213c0-40.8,33.2-74,74-74   s74,33.2,74,74v225C330,478.8,296.8,512,256,512z M256,179c-18.7,0-34,15.3-34,34v225c0,18.7,15.3,34,34,34s34-15.3,34-34V213   C290,194.3,274.7,179,256,179z"/>
	<path class="st1" d="M139,162.3c0-31.2-27.8-56.7-61.9-56.7c-14.5,0-25.1-7-25.1-16.7c0-9.2,7.4-16.7,16.5-16.7   c9.2,0,21.1,1,40.2,8.4c10.3,4,21.9-1.1,25.9-11.4s-1.1-21.9-11.4-25.9c-9.9-3.9-18.6-6.4-26.2-8.1V20C97,9,88,0,77,0S57,9,57,20   v13.5C31.3,38.9,12,61.7,12,89c0,32.3,28,56.7,65.1,56.7c11.9,0,21.9,7.6,21.9,16.7c0,8.9-8.3,16.7-17.7,16.7   c-7.3,0-25.8-2.7-43.9-9.9c-10.3-4.1-21.9,0.9-26,11.2s0.9,21.9,11.2,26c11.6,4.6,23.7,7.9,34.4,10V228c0,11,9,20,20,20s20-9,20-20   v-11.2c9.1-2.6,17.6-7.4,24.6-14.2C132.8,191.9,139,177.6,139,162.3L139,162.3z"/>
</g>
</svg>