<?xml version="1.0" encoding="UTF-8"?>
<!-- Generator: Adobe Illustrator 25.0.0, SVG Export Plug-In . SVG Version: 6.00 Build 0)  -->
<svg version="1.1" id="Layer_1" xmlns="http://www.w3.org/2000/svg" xmlns:xlink="http://www.w3.org/1999/xlink" x="0px" y="0px" viewBox="0 0 512 512" style="enable-background:new 0 0 512 512;" xml:space="preserve">
<style type="text/css">
	.st0{fill:#CEE1F2;}
	.st1{fill:#3444F1;}
	.st2{fill:#FFB31F;}
</style>
<g>
	<path class="st0" d="M59.3,194.1c0-31.1,14.5-60.5,39.3-79.4l96.8-74.4c35.8-27.3,85.3-27.3,121.1,0l34.9,41.2   c-35.8-27.3-85.3-27.3-121.1,0L118,170.2c-24.8,18.9-39.3,48.2-39.3,79.4L59.3,194.1z M24.5,390l-0.2,0.3   c-8.8,16.9-2.4,37.8,14.4,46.8c12.9,6.9,27.7,14.5,44.7,21.8c-0.1-1.3-0.2-5.8-0.2-6.7c-12-10.3-15.7-27.8-8.1-42.4l0.2-0.3   c8.2-15.7,26.3-21.7,43-16.4c0-0.4,0.1-0.8,0.1-1.3c-18.2-5.9-34.6-10.2-48.8-15.6C52.4,369.7,33,373.6,24.5,390L24.5,390z    M214.2,327.9c-7.3-1-14.6-0.7-21.3,1.1c-11.4,3.2-20.9,11.1-25.7,22.7c-9.2,22.4,1.8,44.8,26.8,53.9c13.8,5,30.1,7.1,46.9,7.5   c0.2-3.5,0.5-7,0.9-10.4c-15.5-8.4-21.8-24.3-15.3-40.2c3.8-9.3,11.4-15.3,20.5-17.9c0.5-0.1,1-0.2,1.5-0.4   c0.3-4.6,0.6-9.2,0.8-13.8C238.3,330.5,226.7,329.6,214.2,327.9z"/>
	<path class="st1" d="M6.7,381.8c13-25,42.5-35.5,70.1-25.1c19.2,7.3,42.8,16.2,68.4,23.3c-2.4-11.4-1.2-23.4,3.5-34.9   c6.9-16.7,21-29.1,38.8-34.1c9.1-2.5,19-3.1,29.3-1.7c68.4,9.3,109.1-13.8,145.1-34.2c24.2-13.7,47-26.7,73.7-26.7   c31.2,0,61.9,10.9,61.9,10.9c10.5,3.3,16.4,14.5,13.1,25s-14.5,16.4-25,13.1c0,0-25.5-9.1-49.9-9.1c-16.2,0-32.8,9.5-54,21.5   c-31.6,18-73.1,41.5-134.8,41.5c-11.1,0-22.9-0.8-35.3-2.5c-4.9-0.7-9.5-0.5-13.2,0.6c-4.2,1.2-9.8,4-12.6,10.8   c-2.2,5.3-2.3,10.2-0.3,14.7c2.4,5.5,7.9,10,15.5,12.8c10.9,4,26.5,6.1,44.1,6.3c19,0.1,37.5-2.1,53.8-6.3   c10.7-2.8,21.6,3.6,24.4,14.2c2.8,10.7-3.6,21.6-14.2,24.4c-19.1,5-41,7.6-64,7.6C169,433.8,104,409.7,62.6,394   c-6.9-2.6-16.5-1.5-20.7,6.5c-3.7,7.2-1,16.1,6.1,20C98.1,447.3,156.2,472,241.7,472c76.1,0,146.1-29.4,191.5-54   c35-19,60.5-13,63.3-12.2v0.1c8.5,2.3,14.9,10,14.9,19.3c0,11-8.9,20-20,20c-1.9,0-3.8-0.3-5.5-0.8c-3.4-0.4-15.7-0.9-33.6,8.8   C402.9,480,326.3,512,241.8,512c-107.2,0-178.3-38-212.5-56.2C3,441.7-7.1,408.3,6.7,381.8L6.7,381.8z"/>
	<path class="st1" d="M486.9,443.6L486.9,443.6L486.9,443.6z M79.2,293.4v-99.3c0-24.7,11.7-48.5,31.5-63.5l96.8-74.3   c28.5-21.7,68.3-21.7,96.9,0l97.8,74.4c20,15.2,31.4,38.2,31.4,63c0,11,8.9,20,20,20c11,0,20-8.9,20-20c0-37.4-17.2-71.9-47.2-94.8   l-97.8-74.4C285.8-8.2,226-8.2,183.2,24.5L86.4,98.8c-29.5,22.5-47.1,58.1-47.1,95.2v99.3c0,11,8.9,20,20,20S79.2,304.4,79.2,293.4   L79.2,293.4z"/>
	<path class="st2" d="M240.9,151.6c0,13.8-11.2,25-25,25s-25-11.2-25-25s11.2-25,25-25S240.9,137.9,240.9,151.6z M295.8,126.7   c-13.8,0-25,11.2-25,25s11.2,25,25,25s25-11.2,25-25S309.6,126.7,295.8,126.7z M216,206.5c-13.8,0-25,11.2-25,25s11.2,25,25,25   s25-11.2,25-25S229.8,206.5,216,206.5L216,206.5z M295.8,206.5c-13.8,0-25,11.2-25,25s11.2,25,25,25s25-11.2,25-25   S309.6,206.5,295.8,206.5L295.8,206.5z"/>
</g>
</svg>