<?xml version="1.0" encoding="UTF-8"?>
<!-- Generator: Adobe Illustrator 25.0.0, SVG Export Plug-In . SVG Version: 6.00 Build 0)  -->
<svg version="1.1" id="Layer_1" xmlns="http://www.w3.org/2000/svg" xmlns:xlink="http://www.w3.org/1999/xlink" x="0px" y="0px" viewBox="0 0 512 512" style="enable-background:new 0 0 512 512;" xml:space="preserve">
<style type="text/css">
	.st0{fill:#CEE1F2;}
	.st1{fill:#3444F1;}
	.st2{fill:#FFB31F;}
</style>
<g>
	<path class="st0" d="M111.3,491.6C60.1,487.1,20,444.2,20,392V223.7c0-31.2,14.6-60.6,39.4-79.5l136-103.7   c35.8-27.3,85.5-27.3,121.3,0l9.2,7c-24.6-2.4-49.8,4.2-70.5,20L93.6,190.8C85,197.4,80,207.5,80,218.3V419   C80,447.6,92,473.4,111.3,491.6L111.3,491.6z"/>
	<path class="st1" d="M392,512H120C53.8,512,0,458.1,0,392V223.7c0-37.2,17.7-72.9,47.2-95.4l136-103.7   c42.8-32.7,102.7-32.7,145.5,0L372,57.5V32c0-11,9-20,20-20s20,9,20,20v65.9c0,7.6-4.3,14.5-11.1,17.9c-6.8,3.4-15,2.6-21-2   l-75.4-57.4c-28.6-21.8-68.5-21.8-97,0l-136,103.7c-19.7,15-31.5,38.8-31.5,63.6V392c0,44.1,35.9,80,80,80h272   c44.1,0,80-35.9,80-80V223.7c0-25.1-11.6-49-31.1-63.8c-8.8-6.7-10.5-19.2-3.8-28s19.3-10.5,28-3.8c29.3,22.4,46.9,58.1,46.9,95.6   V392C512,458.1,458.2,512,392,512z"/>
	<path class="st2" d="M241,256c0,13.8-11.2,25-25,25s-25-11.2-25-25s11.2-25,25-25S241,242.2,241,256z M296,231   c-13.8,0-25,11.2-25,25c0,13.8,11.2,25,25,25s25-11.2,25-25C321,242.2,309.8,231,296,231z M216,311c-13.8,0-25,11.2-25,25   s11.2,25,25,25s25-11.2,25-25S229.8,311,216,311z M296,311c-13.8,0-25,11.2-25,25s11.2,25,25,25s25-11.2,25-25S309.8,311,296,311z"/>
</g>
</svg>