<?xml version="1.0" encoding="UTF-8"?>
<!-- Generator: Adobe Illustrator 25.0.0, SVG Export Plug-In . SVG Version: 6.00 Build 0)  -->
<svg version="1.1" id="Layer_1" xmlns="http://www.w3.org/2000/svg" xmlns:xlink="http://www.w3.org/1999/xlink" x="0px" y="0px" viewBox="0 0 512 512" style="enable-background:new 0 0 512 512;" xml:space="preserve">
<style type="text/css">
	.st0{fill:#CEE1F2;}
	.st1{fill:#3444F1;}
	.st2{fill:#FFB31F;}
</style>
<g>
	<path class="st0" d="M81,392V120c0-55.2,44.8-100,100-100h-61C64.8,20,20,64.8,20,120v272c0,55.2,44.8,100,100,100h61   C125.8,492,81,447.2,81,392z"/>
	<path class="st1" d="M392,512H120C53.8,512,0,458.2,0,392V120C0,53.8,53.8,0,120,0h208c11,0,20,9,20,20s-9,20-20,20H120   c-44.1,0-80,35.9-80,80v272c0,44.1,35.9,80,80,80h272c44.1,0,80-35.9,80-80V207c0-11,9-20,20-20s20,9,20,20v185   C512,458.2,458.2,512,392,512z M385.3,236.8l112.1-134c0,0,0-0.1,0.1-0.1c22.1-26.7,18.4-66.3-8.3-88.4s-66.3-18.4-88.4,8.3   l-0.1,0.1L290.5,158.4c-7,8.6-5.7,21.2,2.9,28.1c8.6,7,21.2,5.7,28.1-2.9L431.7,48.2c8-9.6,22.4-10.9,32-2.9c9.7,8,11,22.4,3,32   l-112,133.9c-7.1,8.5-6,21.1,2.5,28.2c3.7,3.1,8.3,4.7,12.8,4.7C375.7,244,381.4,241.6,385.3,236.8L385.3,236.8z"/>
	<path class="st2" d="M169.5,433c-20.6,0-40.5-11.2-50.7-28.5c-8.7-14.8-9-31.6-0.9-46.3c10-18.1,15.8-34.9,21.3-51.1   c9.4-27.7,18.4-53.8,45.3-76.2c19.6-16.3,44.3-23.9,69.5-21.5c25.3,2.4,48.2,14.6,64.3,34.4c14,17.1,21.7,38.8,21.7,61.1   c0,39.4-23.7,74.5-66.7,99C242.2,421.6,201.4,433,169.5,433L169.5,433z M244.9,249c-12.7,0-24.9,4.4-34.9,12.7   c-18.3,15.2-24.5,33.3-33,58.4c-5.8,17-12.4,36.4-24.2,57.6c-0.6,1.1-1.7,3.1,0.4,6.6c2.6,4.4,9,8.8,16.3,8.8   C213.8,393.1,300,362,300,305c0-13.3-4.4-25.6-12.6-35.7c-9.4-11.4-22.6-18.5-37.2-19.9C248.4,249.1,246.6,249,244.9,249L244.9,249   z"/>
</g>
</svg>