<?xml version="1.0" encoding="UTF-8"?>
<!-- Generator: Adobe Illustrator 25.0.0, SVG Export Plug-In . SVG Version: 6.00 Build 0)  -->
<svg version="1.1" id="Layer_1" xmlns="http://www.w3.org/2000/svg" xmlns:xlink="http://www.w3.org/1999/xlink" x="0px" y="0px" viewBox="0 0 512 512" style="enable-background:new 0 0 512 512;" xml:space="preserve">
<style type="text/css">
	.st0{fill:#CEE1F2;}
	.st1{fill:#3444F1;}
	.st2{fill:#FFB31F;}
</style>
<g>
	<path class="st0" d="M81.5,276c0-92.5,58.2-171.5,140-202.2c-9.2-7.6-21.6-11.2-34.4-8.2C91.4,87.7,20,173.5,20,276   c0,119.6,96.3,216,216,216c10.4,0,20.7-0.8,30.7-2.2C161.7,475,81.5,385.2,81.5,276z"/>
	<path class="st1" d="M236,512c-63.2,0-122.5-24.5-167-69S0,339.2,0,276c0-53.6,18.5-106.2,52.1-147.9c33.1-41.1,79.4-70.2,130.5-82   c17.9-4.1,36.3,0,50.7,11.5s22.7,28.6,22.7,47V236c0,11,9,20,20,20h131.4c18.4,0,35.6,8.3,47,22.7c11.4,14.4,15.6,32.9,11.5,50.7   c-11.8,51.1-41,97.4-82,130.5C342.1,493.5,289.6,512,236,512L236,512z M196.1,84.6c-1.5,0-3,0.2-4.5,0.5   C102.3,105.7,40,184.2,40,276c0,52.5,20.3,101.8,57.3,138.7c36.9,37,86.2,57.3,138.7,57.3c91.8,0,170.3-62.3,190.9-151.6   c1.4-5.9,0-12-3.8-16.8s-9.6-7.6-15.7-7.6H276c-33.1,0-60-26.9-60-60V104.6c0-6.1-2.8-11.9-7.6-15.7   C204.8,86,200.5,84.6,196.1,84.6L196.1,84.6z M187.1,65.6L187.1,65.6L187.1,65.6z"/>
	<path class="st2" d="M450.6,216h-93.2c-33.9,0-61.4-27.6-61.4-61.4V61.4c0-19.7,9.1-37.7,24.9-49.4c15.9-11.7,35.9-15,54.9-9.2   c31.3,9.7,60.1,27,83.2,50.2c23.2,23.2,40.5,51.9,50.2,83.2c5.9,18.9,2.5,38.9-9.3,54.8C488.3,206.9,470.3,216,450.6,216L450.6,216   z M357.4,40c-4.5,0-9,1.4-12.8,4.2c-5.5,4.1-8.7,10.3-8.7,17.2v93.2c0,11.8,9.6,21.4,21.4,21.4h93.2c6.9,0,13.1-3.2,17.2-8.7   c4.1-5.6,5.3-12.6,3.2-19.3c-7.8-25.1-21.7-48.2-40.3-66.8C412.1,62.7,389,48.8,363.9,41C361.8,40.4,359.6,40,357.4,40z"/>
</g>
</svg>