<?xml version="1.0" encoding="UTF-8"?>
<!-- Generator: Adobe Illustrator 25.2.0, SVG Export Plug-In . SVG Version: 6.00 Build 0)  -->
<svg version="1.1" id="_x31_px" xmlns="http://www.w3.org/2000/svg" xmlns:xlink="http://www.w3.org/1999/xlink" x="0px" y="0px" viewBox="0 0 512 512" style="enable-background:new 0 0 512 512;" xml:space="preserve">
<style type="text/css">
	.st0{fill:#F47F0B;stroke:#F47F0B;stroke-width:8;stroke-miterlimit:10;}
</style>
<path class="st0" d="M458.7,512h-384c-29.4,0-53.3-23.9-53.3-53.3V53.3C21.3,23.9,45.3,0,74.7,0H416c5.9,0,10.7,4.8,10.7,10.7v74.7  h32c5.9,0,10.7,4.8,10.7,10.7v405.3C469.3,507.2,464.6,512,458.7,512z M42.7,96v362.7c0,17.6,14.4,32,32,32H448v-384H74.7  C62.7,106.7,51.6,102.7,42.7,96L42.7,96z M74.7,21.3c-17.6,0-32,14.4-32,32s14.4,32,32,32h330.7v-64H74.7z"/>
<path class="st0" d="M309.3,298.7c-2.8,0-5.5-1.1-7.6-3.1l-56.4-56.5l-56.4,56.4c-3.1,3.1-7.6,4-11.6,2.3c-4-1.6-6.6-5.5-6.6-9.8V96  c0-5.9,4.8-10.7,10.7-10.7S192,90.1,192,96v166.3l45.8-45.8c4.2-4.2,10.9-4.2,15.1,0l45.8,45.8V96c0-5.9,4.8-10.7,10.7-10.7  S320,90.1,320,96v192c0,4.3-2.6,8.2-6.6,9.9C312.1,298.4,310.7,298.7,309.3,298.7L309.3,298.7z"/>
</svg>