<?xml version="1.0" encoding="UTF-8"?>
<!-- Generator: Adobe Illustrator 25.2.0, SVG Export Plug-In . SVG Version: 6.00 Build 0)  -->
<svg version="1.1" id="Capa_1" xmlns="http://www.w3.org/2000/svg" xmlns:xlink="http://www.w3.org/1999/xlink" x="0px" y="0px" viewBox="0 0 490.7 490.7" style="enable-background:new 0 0 490.7 490.7;" xml:space="preserve">
<style type="text/css">
	.st0{fill:#FC4B92;}
</style>
<g>
	<g>
		<path class="st0" d="M245.3,98c-39.7,0-72,32.3-72,72s32.3,72,72,72s72-32.3,72-72S285,98,245.3,98z M245.3,221.3    c-28.3,0-51.4-23-51.4-51.4s23-51.4,51.4-51.4s51.4,23,51.4,51.4S273.7,221.3,245.3,221.3z"/>
	</g>
</g>
<g>
	<g>
		<path class="st0" d="M389.3,180.3c-28.3,0-51.4,23-51.4,51.4s23,51.4,51.4,51.4c28.3,0,51.4-23,51.4-51.4S417.6,180.3,389.3,180.3    z M389.3,262.5c-17,0-30.8-13.9-30.8-30.8s13.9-30.8,30.8-30.8s30.8,13.9,30.8,30.8S406.2,262.5,389.3,262.5z"/>
	</g>
</g>
<g>
	<g>
		<path class="st0" d="M102.9,180.3c-28.3,0-51.4,23-51.4,51.4s23,51.4,51.4,51.4s51.4-23,51.4-51.4S131.3,180.3,102.9,180.3z     M102.9,262.5c-17,0-30.8-13.9-30.8-30.8s13.9-30.8,30.8-30.8s30.8,13.9,30.8,30.8S120,262.5,102.9,262.5z"/>
	</g>
</g>
<g>
	<g>
		<path class="st0" d="M245.3,262.5c-73.7,0-133.6,59.9-133.6,133.6c0,5.7,4.6,10.3,10.3,10.3s10.3-4.6,10.3-10.3    c0-62.3,50.7-113,113-113s113.1,50.7,113.1,113c0,5.7,4.6,10.3,10.3,10.3c5.7,0,10.3-4.6,10.3-10.3    C379,322.4,319,262.5,245.3,262.5z"/>
	</g>
</g>
<g>
	<g>
		<path class="st0" d="M389.3,303.6c-17,0-33.5,4.6-47.9,13.4c-4.8,3-6.4,9.2-3.5,14.2c3,4.8,9.2,6.4,14.2,3.5    c11.2-6.8,24.1-10.4,37.3-10.4c39.7,0,72,32.3,72,72c0,5.7,4.6,10.3,10.3,10.3c5.7,0,10.3-4.6,10.3-10.3    C481.8,345,440.2,303.6,389.3,303.6z"/>
	</g>
</g>
<g>
	<g>
		<path class="st0" d="M149.4,316.9c-14.5-8.7-30.9-13.3-47.9-13.3c-51,0-92.5,41.5-92.5,92.5c0,5.7,4.6,10.3,10.3,10.3    s10.3-4.6,10.3-10.3c0-39.7,32.3-72,72-72c13.2,0,26,3.6,37.2,10.4c4.8,3,11.2,1.4,14.2-3.5C155.9,326.1,154.2,319.9,149.4,316.9z    "/>
	</g>
</g>
</svg>