<?xml version="1.0" encoding="UTF-8"?>
<!-- Generator: Adobe Illustrator 25.2.0, SVG Export Plug-In . SVG Version: 6.00 Build 0)  -->
<svg version="1.1" id="outline" xmlns="http://www.w3.org/2000/svg" xmlns:xlink="http://www.w3.org/1999/xlink" x="0px" y="0px" viewBox="0 0 512 512" style="enable-background:new 0 0 512 512;" xml:space="preserve">
<style type="text/css">
	.st0{fill:#F11E78;stroke:#F11E78;stroke-width:6;stroke-miterlimit:10;}
</style>
<path class="st0" d="M444.2,150.6c6.9-14.6,10.9-30.4,11.8-46.6c0.1-48.5-39.2-87.9-87.8-88c-28,0-54.4,13.3-71,35.9  C175.7,29.1,58.6,109.2,35.8,230.8s57.3,238.6,178.9,261.4c121.6,22.8,238.6-57.3,261.4-178.9c2.6-13.6,3.8-27.4,3.8-41.3  C480,228.9,467.6,186.7,444.2,150.6z M464,272c0,39.2-11.1,77.6-32.1,110.8c-7.1-34.3-20.4-42.5-36.7-48.8  c-5.3-1.6-10.3-4.4-14.4-8.1c-5.9-6.6-11-13.8-15.2-21.5c-11.4-18.8-25.5-42.1-57.7-58.2l-5.9-2.9c-40.4-20-54-26.8-34.8-84.2  c3.5-10.5,9.5-20.1,17.4-27.9c9.9,32.7,34,71.5,55,101.4c11,15.6,32.6,19.4,48.2,8.4c3.3-2.3,6.1-5.1,8.4-8.4  c14.7-20.6,28-42.3,39.7-64.7C454.4,199.5,464,235.4,464,272z M368,32c39.7,0,72,32.3,72,72c0,24.8-20.2,67.2-56.8,119.4  c-6,8.4-17.6,10.4-26,4.4c-1.7-1.2-3.2-2.7-4.4-4.4C316.2,171.2,296,128.8,296,104C296,64.3,328.3,32,368,32z M48,272  c0-45.4,14.9-89.6,42.4-125.7c12,7.9,65.3,45.5,53.6,86.2c-4.9,14.7-3.4,30.8,4.2,44.3c14.1,24.4,45,32.4,45.6,32.6  c0.3,0.1,26.5,9.1,31.4,27.2c2.7,9.9-1.5,21.5-12.6,34.5c-12.5,15.5-29.2,27.1-48,33.5c-14.5,5.6-27.3,10.6-33.5,33.7  C78.8,399,48,337.4,48,272z M256,480c-39.2,0-77.5-11.1-110.6-32c3.6-20.1,10.6-22.9,25.1-28.5c21.3-7.4,40.1-20.5,54.3-38  c14.8-17.3,20.1-33.8,15.9-49.2c-7.3-26.3-40.4-37.6-42.4-38.2c-0.2-0.1-25.5-6.6-36.3-25.2c-5.3-9.8-6.3-21.4-2.6-31.9  c14.3-50.1-42.1-92-58.8-103.1C140,89.4,196.6,64,256,64c10.9,0,21.7,0.9,32.5,2.6c-5.6,11.7-8.5,24.5-8.5,37.4  c0,3.2,0.3,6.4,0.7,9.5c-13.3,10.4-23.2,24.5-28.6,40.5c-23.6,70.6,1.4,83.1,42.9,103.6l5.8,2.9c28,14,40.3,34.3,51.1,52.2  c4.9,8.8,10.7,17.1,17.5,24.6c5.7,5.3,12.5,9.3,20,11.7c12.9,5,24.1,9.4,29.2,52.4C379.4,451,319.4,480,256,480z M368,152  c26.5,0,48-21.5,48-48s-21.5-48-48-48s-48,21.5-48,48C320,130.5,341.5,152,368,152z M368,72c17.7,0,32,14.3,32,32s-14.3,32-32,32  s-32-14.3-32-32S350.3,72,368,72z"/>
</svg>