<?xml version="1.0" encoding="UTF-8"?>
<!-- Generator: Adobe Illustrator 25.2.0, SVG Export Plug-In . SVG Version: 6.00 Build 0)  -->
<svg version="1.1" id="Layer_1" xmlns="http://www.w3.org/2000/svg" xmlns:xlink="http://www.w3.org/1999/xlink" x="0px" y="0px" viewBox="0 0 16 16" style="enable-background:new 0 0 16 16;" xml:space="preserve">
<style type="text/css">
	.st0{fill:none;stroke:#6D6E75;stroke-width:1.3333;stroke-linecap:round;stroke-linejoin:round;stroke-miterlimit:2.6667;}
</style>
<path class="st0" d="M2,12V8c0-3.3,2.9-6,6.4-6s6.4,2.7,6.4,6v4"/>
<path class="st0" d="M14.8,12.7c0,0.7-0.6,1.3-1.4,1.3h-0.7c-0.8,0-1.4-0.6-1.4-1.3v-2c0-0.7,0.6-1.3,1.4-1.3h2.1V12.7z M2,12.7  C2,13.4,2.6,14,3.3,14H4c0.7,0,1.3-0.6,1.3-1.3v-2c0-0.7-0.6-1.3-1.3-1.3H2V12.7z"/>
</svg>