<?xml version="1.0" encoding="UTF-8"?>
<!-- Generator: Adobe Illustrator 25.2.0, SVG Export Plug-In . SVG Version: 6.00 Build 0)  -->
<svg version="1.1" id="Capa_1" xmlns="http://www.w3.org/2000/svg" xmlns:xlink="http://www.w3.org/1999/xlink" x="0px" y="0px" viewBox="0 0 512 512" style="enable-background:new 0 0 512 512;" xml:space="preserve">
<style type="text/css">
	.st0{fill:#FFFFFF;}
</style>
<g>
	<path class="st0" d="M158.5,87.1c7.2-4.1,9.6-13.3,5.5-20.5l-15-26c-4.2-7.2-13.4-9.7-20.5-5.5c-7.2,4.1-9.6,13.3-5.5,20.5l15,26   C142.2,88.9,151.4,91.2,158.5,87.1z"/>
	<path class="st0" d="M66.6,348l-26,15c-7.2,4.1-9.6,13.3-5.5,20.5c4.2,7.2,13.4,9.6,20.5,5.5l26-15c7.2-4.1,9.6-13.3,5.5-20.5   C83,346.3,73.8,343.9,66.6,348z"/>
	<path class="st0" d="M445.4,164l26-15c7.2-4.1,9.6-13.3,5.5-20.5s-13.4-9.6-20.5-5.5l-26,15c-7.2,4.1-9.6,13.3-5.5,20.5   C429.1,165.7,438.3,168.1,445.4,164z"/>
	<path class="st0" d="M430.4,374l26,15c7.1,4.1,16.3,1.7,20.5-5.5c4.1-7.2,1.7-16.3-5.5-20.5l-26-15c-7.2-4.1-16.3-1.7-20.5,5.5   C420.7,360.7,423.2,369.8,430.4,374z"/>
	<path class="st0" d="M81.6,138l-26-15c-7.2-4.1-16.3-1.7-20.5,5.5s-1.7,16.3,5.5,20.5l26,15c7.1,4.1,16.3,1.7,20.5-5.5   C91.3,151.3,88.8,142.2,81.6,138z"/>
	<path class="st0" d="M374,81.6l15-26c4.1-7.2,1.7-16.3-5.5-20.5c-7.2-4.2-16.3-1.7-20.5,5.5l-15,26c-4.1,7.2-1.7,16.3,5.5,20.5   C360.6,91.2,369.8,88.9,374,81.6z"/>
	<path class="st0" d="M271,46V15c0-8.3-6.7-15-15-15s-15,6.7-15,15v31c0,8.3,6.7,15,15,15C264.3,61,271,54.3,271,46z"/>
	<path class="st0" d="M15,271h31c8.3,0,15-6.7,15-15s-6.7-15-15-15H15c-8.3,0-15,6.7-15,15C0,264.3,6.7,271,15,271z"/>
	<path class="st0" d="M497,241h-31c-8.3,0-15,6.7-15,15c0,8.3,6.7,15,15,15h31c8.3,0,15-6.7,15-15S505.3,241,497,241z"/>
	<path class="st0" d="M271,259.5l-15-30l-15,30V271h30V259.5z"/>
	<path class="st0" d="M241,301h30v60h-30V301z"/>
	<path class="st0" d="M93.5,226.9c-9.4,54.9,8.7,110.3,48.6,148.3c24.7,23.5,38.9,57.6,38.9,91.8c0,24.8,20.2,45,45,45h60   c24.8,0,45-20.2,45-45c0-34.1,14.2-68.2,38.9-91.8c33-31.4,51.1-73.8,51.1-119.2c0-90.6-73-164.4-164.4-164.9   C172.2,90.6,106.4,151.7,93.5,226.9z M211,256c0-2.3,0.5-4.6,1.6-6.7l30-60c5.1-10.2,21.7-10.2,26.8,0l30,60c1,2.1,1.6,4.4,1.6,6.7   v120c0,8.3-6.7,15-15,15h-60c-8.3,0-15-6.7-15-15V256z"/>
</g>
</svg>