<?xml version="1.0" encoding="UTF-8"?>
<!-- Generator: Adobe Illustrator 25.2.0, SVG Export Plug-In . SVG Version: 6.00 Build 0)  -->
<svg version="1.1" id="Capa_1" xmlns="http://www.w3.org/2000/svg" xmlns:xlink="http://www.w3.org/1999/xlink" x="0px" y="0px" viewBox="0 0 791.8 791.8" style="enable-background:new 0 0 791.8 791.8;" xml:space="preserve">
<style type="text/css">
	.st0{fill:#FFFFFF;}
</style>
<g>
	<path class="st0" d="M395.9,501l-236.2-72.7v71.5v49.9c0,56.1,105.8,101.6,236.3,101.6s236.3-45.5,236.3-101.6   c0-0.4-0.1-0.9-0.2-1.3V428.3L395.9,501z"/>
	<path class="st0" d="M0,318.7l84.4,30.2l7.2-15.4l31-2.6l4.4,4.6l-26.6,6.3l-3.9,11.5c0,0-60.1,125.6-51.3,187c0,0,37.5,22.4,75,0   l10-168v-14l55.8-12.6l-3.9,9.7L140.5,369l19.2,6.9l236.2,72.7l236.2-72.7l159.7-57.1L395.9,166.4L0,318.7z"/>
</g>
</svg>