<svg id="svg" version="1.1" xmlns="http://www.w3.org/2000/svg" xmlns:xlink="http://www.w3.org/1999/xlink" width="400" height="398.8934993084371" viewBox="0, 0, 400,398.8934993084371"><g id="svgg"><path id="path0" d="M268.366 0.898 C 267.904 1.392,266.209 3.080,264.601 4.648 C 262.993 6.217,261.388 7.833,261.035 8.241 C 260.682 8.649,260.053 9.271,259.638 9.624 C 259.222 9.976,258.585 10.605,258.223 11.021 C 257.860 11.436,256.872 12.429,256.027 13.227 C 255.182 14.025,254.202 15.013,253.849 15.423 C 253.497 15.832,252.868 16.456,252.452 16.809 C 252.037 17.162,251.400 17.791,251.037 18.206 C 250.674 18.622,249.686 19.615,248.841 20.413 C 247.997 21.211,247.017 22.199,246.664 22.608 C 246.311 23.018,245.682 23.642,245.267 23.995 C 244.851 24.348,244.222 24.976,243.869 25.392 C 243.517 25.808,242.888 26.436,242.472 26.789 C 242.057 27.142,241.420 27.771,241.057 28.186 C 240.694 28.602,239.706 29.595,238.861 30.393 C 238.017 31.191,237.037 32.179,236.684 32.588 C 236.331 32.998,235.702 33.622,235.287 33.975 C 234.871 34.328,234.234 34.957,233.871 35.372 C 233.508 35.788,232.520 36.781,231.676 37.578 C 230.831 38.376,229.851 39.364,229.498 39.774 C 229.145 40.184,228.517 40.808,228.101 41.161 C 227.685 41.513,227.057 42.142,226.704 42.558 C 226.351 42.973,225.722 43.610,225.307 43.973 C 224.891 44.336,223.898 45.324,223.100 46.169 C 222.302 47.013,221.314 47.993,220.905 48.346 C 220.495 48.699,219.871 49.328,219.518 49.743 C 219.165 50.159,218.537 50.796,218.121 51.159 C 217.705 51.522,216.713 52.510,215.915 53.354 C 215.117 54.199,214.129 55.179,213.719 55.532 C 213.309 55.885,212.685 56.513,212.332 56.929 C 211.980 57.345,211.351 57.973,210.935 58.326 C 210.520 58.679,209.891 59.308,209.538 59.723 C 209.185 60.139,208.556 60.776,208.141 61.139 C 207.725 61.502,206.732 62.490,205.935 63.334 C 205.137 64.179,204.149 65.159,203.739 65.512 C 203.329 65.865,202.705 66.493,202.352 66.909 C 202.000 67.325,201.371 67.962,200.955 68.324 C 200.540 68.687,199.547 69.675,198.749 70.520 C 197.951 71.365,196.963 72.353,196.553 72.715 C 196.144 73.078,195.403 73.797,194.908 74.312 C 194.413 74.828,193.785 75.472,193.511 75.744 C 192.024 77.224,176.584 92.656,176.248 92.999 C 176.028 93.223,175.070 94.171,174.120 95.106 C 173.169 96.041,172.091 97.133,171.725 97.533 C 171.358 97.933,148.199 121.139,120.259 149.102 C 92.320 177.066,69.461 200.128,69.461 200.352 C 69.461 200.576,69.227 200.902,68.940 201.078 C 68.654 201.254,67.890 202.116,67.243 202.994 C 66.597 203.872,65.843 204.828,65.569 205.118 C 65.294 205.408,65.070 205.967,65.070 206.360 C 65.070 206.753,64.627 207.727,64.085 208.525 C 61.354 212.550,56.518 221.682,55.688 224.383 C 55.525 224.915,55.255 225.529,55.087 225.749 C 54.920 225.968,54.061 228.393,53.178 231.138 C 36.200 283.916,68.340 338.851,122.557 349.720 C 138.230 352.862,162.541 350.815,172.740 345.495 C 173.352 345.176,173.997 344.914,174.174 344.913 C 175.038 344.906,184.821 340.074,187.803 338.180 C 188.889 337.490,190.011 336.926,190.298 336.926 C 190.584 336.926,190.818 336.727,190.818 336.484 C 190.818 336.241,191.101 336.151,191.447 336.283 C 191.792 336.416,192.309 336.301,192.596 336.027 C 192.882 335.753,193.527 335.259,194.029 334.930 C 194.531 334.601,195.272 334.017,195.675 333.633 C 196.078 333.249,196.542 332.931,196.707 332.927 C 196.871 332.923,197.429 332.474,197.946 331.929 C 198.463 331.384,199.048 330.938,199.246 330.938 C 199.444 330.938,239.484 291.013,288.223 242.216 C 336.962 193.418,376.998 153.335,377.191 153.142 C 377.384 152.949,381.225 149.109,385.726 144.608 C 390.227 140.107,394.111 136.223,394.357 135.977 C 394.603 135.730,395.974 134.380,397.402 132.976 C 398.831 131.571,400.000 130.180,400.000 129.883 C 400.000 129.254,385.077 114.172,384.454 114.172 C 384.013 114.172,380.040 118.131,380.040 118.572 C 380.040 118.712,379.611 119.057,379.086 119.338 C 378.561 119.619,377.913 120.258,377.645 120.758 C 377.377 121.259,376.728 121.898,376.204 122.179 C 375.679 122.460,375.250 122.979,375.250 123.331 C 375.250 124.523,186.761 312.937,182.435 316.070 C 173.993 322.183,166.367 325.800,157.086 328.095 C 92.946 343.950,44.656 270.165,84.355 216.966 C 86.929 213.516,275.253 24.750,276.120 24.750 C 276.523 24.750,279.935 21.517,282.296 18.896 C 282.659 18.493,283.422 17.741,283.993 17.224 C 285.962 15.438,285.624 14.880,277.879 7.143 C 270.452 -0.275,269.839 -0.677,268.366 0.898 " stroke="none" fill="#2c4cfb" fill-rule="evenodd"></path><path id="path1" d="M48.990 221.889 C 40.695 230.159,31.916 238.847,29.482 241.195 C 25.255 245.273,25.048 245.549,24.851 247.383 C 24.738 248.438,24.507 249.481,24.336 249.701 C 24.166 249.920,23.802 252.211,23.528 254.790 C 23.253 257.370,22.893 259.481,22.728 259.481 C 22.562 259.481,22.300 261.008,22.144 262.874 C 21.989 264.741,21.732 266.267,21.574 266.267 C 21.416 266.267,21.056 268.378,20.774 270.958 C 20.491 273.538,20.127 275.828,19.964 276.048 C 19.801 276.267,19.440 278.513,19.162 281.038 C 18.884 283.563,18.518 285.808,18.350 286.028 C 18.182 286.248,17.915 287.819,17.757 289.521 C 17.600 291.223,17.337 292.615,17.174 292.615 C 17.010 292.615,16.647 294.860,16.367 297.605 C 16.087 300.349,15.720 302.595,15.550 302.595 C 15.380 302.595,15.114 304.122,14.959 305.988 C 14.803 307.854,14.549 309.381,14.394 309.381 C 14.240 309.381,13.878 311.402,13.590 313.872 C 13.303 316.342,12.932 318.543,12.766 318.762 C 12.600 318.982,12.334 320.509,12.176 322.156 C 12.017 323.802,11.750 325.329,11.582 325.549 C 11.414 325.768,11.046 328.059,10.763 330.639 C 10.481 333.219,10.120 335.329,9.962 335.329 C 9.804 335.329,9.550 336.722,9.397 338.423 C 9.245 340.125,9.038 341.876,8.938 342.315 C 8.789 342.970,9.291 343.387,11.736 344.636 C 34.460 356.243,51.098 375.449,51.098 390.072 L 51.098 391.225 53.393 390.967 C 54.656 390.825,55.868 390.572,56.088 390.405 C 56.307 390.237,57.879 389.971,59.581 389.813 C 61.282 389.656,62.675 389.405,62.675 389.257 C 62.675 389.108,64.965 388.752,67.764 388.464 C 70.564 388.177,73.034 387.799,73.253 387.624 C 73.473 387.449,75.090 387.176,76.846 387.018 C 78.603 386.860,80.220 386.593,80.439 386.425 C 80.659 386.256,83.039 385.885,85.729 385.600 C 88.418 385.314,90.619 384.954,90.619 384.798 C 90.619 384.643,92.236 384.388,94.212 384.232 C 96.188 384.075,97.804 383.809,97.804 383.640 C 97.804 383.471,100.140 383.102,102.994 382.819 C 105.848 382.537,108.184 382.181,108.184 382.030 C 108.184 381.879,110.384 381.528,113.074 381.251 C 115.763 380.973,118.144 380.607,118.363 380.437 C 118.583 380.267,120.245 380.000,122.056 379.843 C 123.867 379.686,125.349 379.419,125.349 379.250 C 125.349 379.080,127.685 378.717,130.539 378.443 C 133.393 378.169,135.729 377.806,135.729 377.637 C 135.729 377.468,137.345 377.202,139.321 377.046 C 141.297 376.890,142.914 376.634,142.914 376.479 C 142.914 376.324,145.111 375.960,147.795 375.672 L 152.676 375.147 163.173 364.619 C 168.947 358.829,173.801 354.088,173.961 354.084 C 174.121 354.079,178.114 350.195,182.834 345.452 C 188.289 339.971,191.053 336.936,190.419 337.124 C 189.870 337.287,189.152 337.647,188.822 337.924 C 183.358 342.527,166.961 348.480,152.894 350.968 C 148.138 351.809,131.835 351.681,126.347 350.760 C 100.258 346.380,78.575 332.676,64.099 311.417 C 62.877 309.622,61.876 308.039,61.876 307.900 C 61.876 307.761,61.624 307.364,61.317 307.017 C 61.009 306.671,59.791 304.501,58.611 302.196 C 45.827 277.228,44.941 247.915,56.198 222.355 C 58.019 218.219,63.574 208.215,64.298 207.768 C 64.742 207.493,64.798 206.772,64.371 206.819 C 64.207 206.837,57.285 213.619,48.990 221.889 " stroke="none" fill="#fb9b44" fill-rule="evenodd"></path><path id="path2" d="M181.942 118.862 C 130.193 170.624,86.852 214.232,85.629 215.768 C 53.154 256.565,74.305 316.789,125.150 328.296 C 133.245 330.128,148.179 330.269,153.892 328.568 C 154.551 328.371,155.762 328.098,156.585 327.960 C 165.463 326.470,178.300 319.726,186.836 312.068 C 193.332 306.241,374.850 124.304,374.850 123.620 C 374.850 123.071,367.563 115.369,367.044 115.369 C 366.946 115.369,366.866 115.544,366.866 115.759 C 366.866 115.973,349.091 133.976,327.366 155.767 L 287.865 195.386 282.755 190.314 L 277.645 185.243 317.488 145.392 L 357.331 105.542 344.102 92.290 L 330.874 79.039 308.432 101.595 C 296.089 114.001,285.817 124.152,285.604 124.152 C 285.391 124.152,283.021 121.950,280.337 119.259 L 275.456 114.366 298.006 91.814 C 310.408 79.410,320.557 69.131,320.557 68.972 C 320.561 68.280,294.058 42.176,293.884 42.700 C 293.781 43.007,252.100 84.908,201.258 135.813 L 108.819 228.368 103.902 223.466 C 101.197 220.769,99.033 218.337,99.093 218.062 C 99.153 217.786,140.857 175.904,191.768 124.991 L 284.335 32.421 280.512 28.586 C 278.410 26.476,276.542 24.750,276.361 24.750 C 276.180 24.750,233.691 67.101,181.942 118.862 " stroke="none" fill="#ebebeb" fill-rule="evenodd"></path><path id="path3" d="M271.248 29.242 L 268.064 32.535 271.357 29.351 C 274.416 26.393,274.833 25.948,274.542 25.948 C 274.481 25.948,272.999 27.430,271.248 29.242 M191.765 124.994 C 140.855 175.906,99.153 217.786,99.093 218.062 C 99.033 218.337,101.197 220.769,103.902 223.465 L 108.818 228.368 201.067 136.006 C 251.803 85.206,293.490 43.300,293.703 42.880 C 294.034 42.227,293.376 41.407,289.209 37.272 L 284.328 32.428 191.765 124.994 M266.246 34.232 L 264.870 35.729 266.367 34.353 C 267.761 33.072,268.048 32.735,267.743 32.735 C 267.676 32.735,267.003 33.408,266.246 34.232 M261.069 39.421 L 257.685 42.914 261.178 39.530 C 264.422 36.386,264.853 35.928,264.562 35.928 C 264.502 35.928,262.930 37.500,261.069 39.421 M172.654 127.844 L 88.024 212.575 172.754 127.944 C 251.532 49.260,257.664 43.114,257.385 43.114 C 257.330 43.114,219.201 81.243,172.654 127.844 M298.101 91.715 L 275.457 114.367 280.337 119.259 C 283.021 121.950,285.391 124.152,285.603 124.152 C 286.092 124.152,330.539 79.507,330.539 79.015 C 330.539 78.703,321.160 69.062,320.856 69.062 C 320.796 69.062,310.556 79.256,298.101 91.715 M357.176 105.372 C 357.254 105.473,339.391 123.485,317.481 145.399 L 277.645 185.243 282.755 190.314 L 287.865 195.386 327.302 155.830 C 348.993 134.075,366.827 116.026,366.934 115.722 C 367.049 115.392,365.093 113.158,362.081 110.180 C 359.306 107.435,357.099 105.272,357.176 105.372 M63.983 208.084 C 63.203 209.093,62.937 209.713,63.409 209.421 C 63.882 209.129,64.828 207.585,64.534 207.585 C 64.443 207.585,64.196 207.809,63.983 208.084 M60.878 213.174 C 60.538 213.832,60.349 214.371,60.459 214.371 C 60.568 214.371,60.937 213.832,61.277 213.174 C 61.618 212.515,61.807 211.976,61.697 211.976 C 61.587 211.976,61.219 212.515,60.878 213.174 M59.281 215.968 C 58.941 216.627,58.752 217.166,58.862 217.166 C 58.972 217.166,59.340 216.627,59.681 215.968 C 60.021 215.309,60.210 214.770,60.100 214.770 C 59.991 214.770,59.622 215.309,59.281 215.968 M56.559 221.376 C 55.621 223.342,55.753 223.677,56.733 221.819 C 57.178 220.975,57.472 220.213,57.386 220.127 C 57.300 220.041,56.927 220.603,56.559 221.376 M276.248 222.954 C 275.278 223.942,274.574 224.750,274.684 224.750 C 274.794 224.750,275.677 223.942,276.647 222.954 C 277.616 221.966,278.320 221.158,278.210 221.158 C 278.100 221.158,277.217 221.966,276.248 222.954 M55.140 224.601 C 54.876 225.179,54.752 225.744,54.864 225.855 C 54.976 225.967,55.257 225.560,55.489 224.950 C 56.037 223.510,55.762 223.235,55.140 224.601 M53.537 228.787 C 53.291 229.492,53.160 230.139,53.245 230.225 C 53.331 230.310,53.602 229.803,53.848 229.097 C 54.094 228.392,54.225 227.745,54.140 227.659 C 54.054 227.574,53.783 228.081,53.537 228.787 M268.438 230.838 L 267.265 232.136 268.563 230.963 C 269.276 230.318,269.860 229.735,269.860 229.666 C 269.860 229.357,269.531 229.629,268.438 230.838 M52.342 232.375 C 52.097 233.077,51.909 233.850,51.924 234.092 C 51.940 234.333,52.210 233.828,52.525 232.969 C 52.839 232.110,53.027 231.337,52.942 231.252 C 52.857 231.167,52.587 231.672,52.342 232.375 M264.047 235.230 L 262.874 236.527 264.172 235.354 C 264.885 234.710,265.469 234.126,265.469 234.057 C 265.469 233.749,265.140 234.020,264.047 235.230 M73.497 237.170 C 73.252 237.876,73.120 238.523,73.206 238.608 C 73.291 238.693,73.562 238.186,73.808 237.481 C 74.054 236.775,74.185 236.128,74.100 236.043 C 74.014 235.957,73.743 236.465,73.497 237.170 M50.729 238.354 C 50.484 239.499,50.359 240.512,50.452 240.605 C 50.545 240.698,50.822 239.837,51.067 238.692 C 51.313 237.547,51.438 236.534,51.345 236.441 C 51.252 236.348,50.975 237.209,50.729 238.354 M258.867 240.419 L 256.886 242.515 258.982 240.534 C 260.135 239.444,261.078 238.501,261.078 238.438 C 261.078 238.140,260.708 238.472,258.867 240.419 M221.955 277.345 L 187.425 311.976 222.056 277.446 C 254.250 245.346,256.866 242.715,256.586 242.715 C 256.531 242.715,240.947 258.298,221.955 277.345 M49.374 244.914 C 49.229 245.790,49.131 247.046,49.155 247.705 C 49.179 248.363,49.356 247.824,49.549 246.507 C 49.940 243.828,49.785 242.422,49.374 244.914 M70.751 248.703 C 70.751 249.471,70.833 249.785,70.934 249.401 C 71.034 249.017,71.034 248.388,70.934 248.004 C 70.833 247.620,70.751 247.934,70.751 248.703 M48.795 250.299 C 48.795 251.068,48.877 251.382,48.978 250.998 C 49.078 250.614,49.078 249.985,48.978 249.601 C 48.877 249.217,48.795 249.531,48.795 250.299 M48.461 259.681 C 48.462 262.754,48.524 263.959,48.600 262.358 C 48.676 260.756,48.676 258.241,48.599 256.769 C 48.522 255.297,48.460 256.607,48.461 259.681 M69.980 257.086 C 69.980 258.293,70.055 258.787,70.146 258.184 C 70.238 257.580,70.238 256.592,70.146 255.988 C 70.055 255.384,69.980 255.878,69.980 257.086 M69.974 262.475 C 69.977 263.573,70.055 263.975,70.147 263.368 C 70.238 262.761,70.236 261.863,70.141 261.372 C 70.047 260.881,69.971 261.377,69.974 262.475 M48.795 269.062 C 48.795 269.830,48.877 270.145,48.978 269.760 C 49.078 269.376,49.078 268.748,48.978 268.363 C 48.877 267.979,48.795 268.293,48.795 269.062 M49.149 272.289 C 49.175 273.039,49.343 274.192,49.521 274.850 C 49.735 275.638,49.770 275.228,49.624 273.653 C 49.378 271.013,49.075 270.140,49.149 272.289 M71.912 276.647 C 71.912 276.976,72.067 277.605,72.255 278.044 C 72.472 278.547,72.599 278.621,72.599 278.244 C 72.599 277.914,72.444 277.285,72.255 276.846 C 72.039 276.343,71.912 276.269,71.912 276.647 M50.355 279.242 C 50.358 279.681,50.606 280.758,50.905 281.637 L 51.449 283.234 51.217 281.637 C 51.089 280.758,50.842 279.681,50.667 279.242 L 50.350 278.443 50.355 279.242 M51.952 285.429 C 51.952 285.758,52.107 286.387,52.295 286.826 C 52.512 287.330,52.638 287.403,52.638 287.026 C 52.638 286.697,52.484 286.068,52.295 285.629 C 52.079 285.125,51.952 285.052,51.952 285.429 M53.323 289.820 C 53.469 290.369,53.756 291.088,53.960 291.417 C 54.217 291.833,54.248 291.712,54.063 291.018 C 53.916 290.469,53.629 289.750,53.426 289.421 C 53.169 289.005,53.137 289.127,53.323 289.820 M56.116 297.006 C 56.260 297.555,56.537 298.175,56.731 298.383 C 57.301 298.993,57.126 298.118,56.456 297.006 L 55.855 296.008 56.116 297.006 M57.485 300.100 C 57.485 300.290,57.746 300.795,58.064 301.221 C 58.623 301.969,58.635 301.964,58.415 301.092 C 58.188 300.190,57.485 299.441,57.485 300.100 M59.082 303.143 C 59.082 303.434,61.149 306.986,61.318 306.986 C 61.413 306.986,61.035 306.088,60.479 304.990 C 59.612 303.279,59.082 302.578,59.082 303.143 M92.216 311.103 C 92.216 311.172,92.799 311.755,93.513 312.400 L 94.810 313.573 93.638 312.275 C 92.545 311.066,92.216 310.795,92.216 311.103 M185.607 313.273 L 184.232 314.770 185.729 313.395 C 187.122 312.114,187.409 311.776,187.104 311.776 C 187.038 311.776,186.364 312.450,185.607 313.273 M64.884 312.575 C 66.531 315.564,75.183 325.273,79.300 328.754 C 80.585 329.840,79.369 328.486,76.597 325.744 C 73.825 323.002,70.160 318.962,68.451 316.766 C 65.179 312.563,64.321 311.554,64.884 312.575 M124.950 328.543 C 126.315 328.980,127.365 328.980,126.347 328.543 C 125.908 328.354,125.190 328.205,124.750 328.212 C 124.109 328.221,124.148 328.286,124.950 328.543 M153.892 328.543 C 152.875 328.980,153.924 328.980,155.289 328.543 C 156.092 328.286,156.131 328.221,155.489 328.212 C 155.050 328.205,154.331 328.354,153.892 328.543 M131.641 329.624 C 132.138 329.719,132.857 329.716,133.238 329.616 C 133.620 329.516,133.214 329.438,132.335 329.442 C 131.457 329.446,131.145 329.528,131.641 329.624 M147.405 329.616 C 147.789 329.717,148.418 329.717,148.802 329.616 C 149.187 329.516,148.872 329.434,148.104 329.434 C 147.335 329.434,147.021 329.516,147.405 329.616 M135.221 330.029 C 135.929 330.117,137.187 330.118,138.015 330.032 C 138.843 329.945,138.263 329.873,136.727 329.872 C 135.190 329.870,134.512 329.940,135.221 330.029 M142.216 330.031 C 143.039 330.117,144.386 330.117,145.210 330.031 C 146.033 329.945,145.359 329.875,143.713 329.875 C 142.066 329.875,141.392 329.945,142.216 330.031 M82.337 331.209 C 83.066 332.035,86.627 334.701,86.627 334.420 C 86.627 334.332,85.504 333.395,84.132 332.337 C 82.759 331.280,81.952 330.772,82.337 331.209 M87.918 335.420 C 89.103 336.427,91.417 337.872,91.417 337.604 C 91.417 337.513,90.384 336.775,89.122 335.965 C 87.859 335.155,87.318 334.909,87.918 335.420 M187.725 338.170 C 187.011 338.627,186.427 339.077,186.427 339.171 C 186.427 339.455,188.753 338.160,189.020 337.727 C 189.367 337.167,189.204 337.222,187.725 338.170 M183.932 340.346 C 182.889 340.888,182.036 341.422,182.036 341.531 C 182.036 341.641,182.934 341.275,184.032 340.719 C 185.130 340.162,186.028 339.620,186.028 339.514 C 186.028 339.250,186.064 339.236,183.932 340.346 M96.607 340.716 C 96.607 340.985,100.648 342.998,100.827 342.819 C 100.909 342.737,99.993 342.188,98.791 341.599 C 97.590 341.010,96.607 340.612,96.607 340.716 M178.116 343.186 C 176.948 343.738,176.068 344.265,176.159 344.356 C 176.345 344.542,180.838 342.554,180.838 342.286 C 180.838 341.980,180.271 342.167,178.116 343.186 M102.994 343.912 C 103.543 344.226,104.172 344.483,104.391 344.483 C 104.611 344.483,104.341 344.226,103.792 343.912 C 103.244 343.598,102.615 343.342,102.395 343.342 C 102.176 343.342,102.445 343.598,102.994 343.912 M173.781 345.040 C 171.741 345.794,171.747 346.165,173.788 345.469 C 174.811 345.120,175.649 344.762,175.649 344.673 C 175.649 344.430,175.186 344.521,173.781 345.040 M106.188 345.242 C 106.517 345.446,107.236 345.732,107.784 345.879 C 108.478 346.064,108.600 346.033,108.184 345.776 C 107.854 345.572,107.136 345.286,106.587 345.139 C 105.893 344.953,105.771 344.985,106.188 345.242 M168.064 347.106 C 167.295 347.402,166.936 347.644,167.265 347.644 C 167.595 347.644,168.493 347.402,169.261 347.106 C 170.030 346.810,170.389 346.568,170.060 346.568 C 169.731 346.568,168.832 346.810,168.064 347.106 M114.371 348.050 C 114.810 348.242,115.798 348.513,116.567 348.653 C 117.526 348.827,117.714 348.797,117.166 348.557 C 116.727 348.365,115.739 348.093,114.970 347.954 C 114.011 347.780,113.823 347.810,114.371 348.050 M164.072 348.191 C 163.303 348.420,162.863 348.676,163.094 348.761 C 163.325 348.846,164.223 348.656,165.090 348.338 C 166.897 347.676,166.163 347.571,164.072 348.191 M120.567 349.656 C 121.120 349.835,122.467 350.091,123.561 350.226 C 124.810 350.379,125.175 350.349,124.543 350.144 C 123.990 349.965,122.643 349.709,121.549 349.575 C 120.299 349.421,119.935 349.451,120.567 349.656 M157.086 349.891 C 155.988 350.173,155.449 350.408,155.888 350.413 C 156.327 350.418,157.585 350.191,158.683 349.909 C 159.780 349.627,160.319 349.392,159.880 349.387 C 159.441 349.382,158.184 349.609,157.086 349.891 M127.745 350.897 C 128.513 351.088,131.208 351.335,133.733 351.445 C 138.205 351.640,138.231 351.637,134.731 351.305 C 126.995 350.572,126.264 350.529,127.745 350.897 M147.305 351.136 L 142.315 351.644 146.978 351.444 C 149.543 351.333,152.148 351.091,152.767 350.905 C 154.206 350.473,153.520 350.502,147.305 351.136 " stroke="none" fill="#b3b3ae" fill-rule="evenodd"></path><path id="path4" d="M8.782 344.311 C 8.782 344.860,8.619 345.309,8.419 345.309 C 8.219 345.309,7.929 346.836,7.773 348.703 C 7.618 350.569,7.359 352.096,7.198 352.096 C 7.038 352.096,6.673 354.251,6.387 356.886 C 6.102 359.521,5.737 361.677,5.576 361.677 C 5.416 361.677,5.157 363.204,5.001 365.070 C 4.846 366.936,4.580 368.463,4.410 368.463 C 4.240 368.463,3.873 370.709,3.593 373.453 C 3.313 376.198,2.954 378.443,2.794 378.443 C 2.635 378.443,2.276 380.689,1.996 383.433 C 1.716 386.178,1.357 388.423,1.198 388.423 C 0.833 388.423,-0.199 398.338,0.132 398.668 C 0.463 398.999,10.527 397.992,10.778 397.603 C 10.888 397.433,12.505 397.164,14.371 397.006 C 16.238 396.848,17.854 396.579,17.964 396.409 C 18.074 396.238,20.454 395.868,23.253 395.585 C 26.053 395.303,28.343 394.945,28.343 394.789 C 28.343 394.633,29.870 394.378,31.737 394.223 C 33.603 394.067,35.130 393.799,35.130 393.627 C 35.130 393.454,37.465 393.089,40.319 392.814 C 43.174 392.540,45.509 392.158,45.509 391.966 C 45.509 391.774,46.093 391.615,46.806 391.612 C 51.396 391.597,51.621 391.247,50.436 385.977 C 46.992 370.667,33.973 356.568,12.742 345.155 C 8.744 343.006,8.782 343.014,8.782 344.311 " stroke="none" fill="#353434" fill-rule="evenodd"></path></g></svg>